HIERARCHY
ROOT Hips
{
    OFFSET 0.0 0.0 0.0
    CHANNELS 6 Xposition Yposition Zposition Zrotation Xrotation Yrotation
    JOINT LeftHipJoint
    {
        OFFSET 0.1 0.0 0.0
        CHANNELS 3 Zrotation Xrotation Yrotation
        JOINT LeftUpLeg
        {
            OFFSET 0.13210687041282654 0.0 0.0
            CHANNELS 3 Zrotation Xrotation Yrotation
            JOINT LeftLeg
            {
                OFFSET 0.0 0.0 -0.42326977849006653
                CHANNELS 3 Zrotation Xrotation Yrotation
                JOINT LeftFoot
                {
                    OFFSET 0.0 0.0 -0.37444639205932617
                    CHANNELS 3 Zrotation Xrotation Yrotation
                    End Site
                    {
                        OFFSET 0.0 -0.1 0.0
                    }
                }
            }
        }
    }
    JOINT LowerBack
    {
        OFFSET 0.0 0.0 0.1
        CHANNELS 3 Zrotation Xrotation Yrotation
        JOINT Spine
        {
            OFFSET 0.0 0.0 0.3378588855266571
            CHANNELS 3 Zrotation Xrotation Yrotation
            JOINT Spine1
            {
                OFFSET 0.0 0.0 0.33649855852127075
                CHANNELS 3 Zrotation Xrotation Yrotation
                JOINT LeftShoulder
                {
                    OFFSET 0.1 0.0 0.0
                    CHANNELS 3 Zrotation Xrotation Yrotation
                    JOINT LeftArm
                    {
                        OFFSET 0.22131669521331787 0.0 0.0
                        CHANNELS 3 Zrotation Xrotation Yrotation
                        JOINT LeftForeArm
                        {
                            OFFSET 0.3353291153907776 0.0 0.0
                            CHANNELS 3 Zrotation Xrotation Yrotation
                            JOINT LeftHand
                            {
                                OFFSET 0.2810766100883484 0.0 0.0
                                CHANNELS 3 Zrotation Xrotation Yrotation
                                End Site
                                {
                                    OFFSET 0.1 0.0 0.0
                                }
                            }
                        }
                    }
                }
                JOINT Neck
                {
                    OFFSET 0.0 0.0 0.1
                    CHANNELS 3 Zrotation Xrotation Yrotation
                    JOINT Neck1
                    {
                        OFFSET 0.0 0.0 0.18472443521022797
                        CHANNELS 3 Zrotation Xrotation Yrotation
                        End Site
                        {
                            OFFSET 0.0 0.0 0.17504727840423584
                        }
                    }
                }
                JOINT RightShoulder
                {
                    OFFSET -0.1 0.0 0.0
                    CHANNELS 3 Zrotation Xrotation Yrotation
                    JOINT RightArm
                    {
                        OFFSET -0.22131669521331787 0.0 0.0
                        CHANNELS 3 Zrotation Xrotation Yrotation
                        JOINT RightForeArm
                        {
                            OFFSET -0.3353291153907776 0.0 0.0
                            CHANNELS 3 Zrotation Xrotation Yrotation
                            JOINT RightHand
                            {
                                OFFSET -0.2810766100883484 0.0 0.0
                                CHANNELS 3 Zrotation Xrotation Yrotation
                                End Site
                                {
                                    OFFSET -0.1 0.0 0.0
                                }
                            }
                        }
                    }
                }
            }
        }
    }
    JOINT RightHipJoint
    {
        OFFSET -0.1 0.0 0.0
        CHANNELS 3 Zrotation Xrotation Yrotation
        JOINT RightUpLeg
        {
            OFFSET -0.13210687041282654 0.0 0.0
            CHANNELS 3 Zrotation Xrotation Yrotation
            JOINT RightLeg
            {
                OFFSET 0.0 0.0 -0.42326977849006653
                CHANNELS 3 Zrotation Xrotation Yrotation
                JOINT RightFoot
                {
                    OFFSET 0.0 0.0 -0.37444639205932617
                    CHANNELS 3 Zrotation Xrotation Yrotation
                    End Site
                    {
                        OFFSET 0.0 -0.1 0.0
                    }
                }
            }
        }
    }
}
MOTION
Frames: 5
Frame Time: 0.03333333333333333
0.08718737959861755 0.09834112226963043 0.0 160.39159559168448 80.9290129688858 -159.65186835564822 2.2069531490250793e-32 6.3611093629270335e-15 -3.975693351829396e-16 5.861874729303229 9.556313041105206 0.8798473264534267 0.11032559948224499 -2.794431958582952 0.9402183245486591 0.0 0.0 7.951386703658792e-16 2.2069531490250793e-32 6.3611093629270335e-15 -3.975693351829396e-16 0.12251546637396252 6.898909015441228 -1.009202940068746 -2.760089960882509 5.817005431513374e-08 -3.663579538551997e-07 0.0 0.0 4.969616689786745e-17 -29.99519119599135 14.072318392617131 85.49768806799327 -28.96048909615886 -4.150255102571932e-06 -2.606788158894517e-06 0.0 0.0 0.0 0.0 0.0 4.969616689786745e-17 -4.184963535059537 2.479999609264961 0.46044223503024795 0.0 0.0 4.969616689786745e-17 41.87187804095958 15.738660120205992 -84.99739168040752 22.48490713714326 -6.960459150761035e-06 2.9602237355385692e-06 -3.1805546814635164e-15 0.0 0.0 2.2069531490250793e-32 6.3611093629270335e-15 -3.975693351829396e-16 -5.760052733149027 4.506746298563058 -4.363355697069881 0.056533847329891064 5.3618553764096895 6.181524410745022 1.4908850069360235e-16 6.3611093629270335e-15 -8.276074308844047e-33
0.07800373435020447 0.0998053029179573 -0.0010203125420957804 158.38405948956358 81.06712526926604 -158.168139114302 1.9878466759146975e-16 6.367321383789266e-15 -1.104554188354837e-32 6.580530081822575 9.250860036862692 0.31698336098125357 0.08274668458650632 -1.525133193459348 1.452246377153055 0.0 6.410805529824901e-15 0.0 1.9878466759146975e-16 6.367321383789266e-15 -1.104554188354837e-32 0.10444920314340149 7.10517535454374 -1.1850183428006573 -3.037877510157415 3.5838094887198984e-06 1.79573147453304e-07 6.21202086223343e-18 -6.361109362927033e-15 -1.2424041724466861e-17 -30.200296118246055 14.212962155626972 85.37364849741678 -29.03714144049419 4.6162543100982075e-07 4.658908957664663e-09 -4.770832022195274e-15 -3.1805546814635168e-15 6.361109362927033e-15 6.21202086223343e-18 -6.361109362927033e-15 -1.2424041724466861e-17 -5.273915688081196 2.4613857708938855 0.8524715521128586 6.21202086223343e-18 -6.361109362927033e-15 -1.2424041724466861e-17 41.87494124891866 15.536337204127495 -84.7926270196283 22.25497456749962 -2.6332055077344633e-06 3.518542823423053e-07 -4.770832022195275e-15 3.1805546814635168e-15 3.1805546814635168e-15 1.9878466759146975e-16 6.367321383789266e-15 -1.104554188354837e-32 -6.534129205366175 4.142560324898419 -3.290256943792176 0.17500948407306927 6.190927996626605 4.230603502208622 -1.9878466759146985e-16 6.3580033524959186e-15 2.981770013872048e-16
0.06864333152770996 0.10190919786691666 -0.0006262664683163166 156.017994297804 80.8597648724024 -156.29738973628483 3.975693351829396e-16 1.2722218725854067e-14 -3.975693351829396e-16 6.312018585051873 8.400824347226505 -0.0814620515896918 -0.018400827563061245 0.27679866670388736 1.9399401835181709 7.951386703658792e-16 6.410805529824901e-15 -4.4483899410036755e-32 3.975693351829396e-16 1.2722218725854067e-14 -3.975693351829396e-16 0.07701125267293574 6.951198627907191 -1.4312585996799714 -3.3306257536708292 3.623242900981294e-06 1.891208283663987e-07 -9.939233379573492e-17 -7.765026077791791e-19 -6.7350865143587625e-37 -30.503411166147444 14.368373620204318 85.36224220603826 -29.027445671537492 -3.3315124112901343e-07 5.437740015455679e-06 1.5902773407317584e-15 0.0 0.0 -9.939233379573492e-17 -7.765026077791791e-19 -6.7350865143587625e-37 -6.028784434981724 2.491684277601945 1.233759176562041 -9.939233379573492e-17 -7.765026077791791e-19 -6.7350865143587625e-37 42.604953375210364 15.333542523166598 -84.72453846145277 21.72205119325641 -1.8043650710291958e-06 4.6267068769769135e-07 -1.5902773407317584e-15 -3.1805546814635168e-15 -3.1805546814635168e-15 3.975693351829396e-16 1.2722218725854067e-14 -3.975693351829396e-16 -6.349680557240731 3.732513099126509 -2.3711016384771577 0.2844483969754288 6.621826171163444 2.3584291241377024 -1.1034765745125397e-32 -6.3611093629270335e-15 -1.987846675914698e-16
0.05984146520495415 0.10374492406845093 -0.0005050757899880409 154.28338533515307 80.74511498616972 -155.04612071745112 -1.987846675914698e-16 -6.361109362927035e-15 3.975693351829397e-16 6.23971571271373 7.677936835856953 -0.4631137732957156 -0.16058168973968148 1.9748639192788857 2.360423147552277 0.0 0.0 7.951386703658792e-16 -1.987846675914698e-16 -6.361109362927035e-15 3.975693351829397e-16 0.03710053602780079 7.011769269241846 -1.6723144546334632 -3.430090442574818 5.855324830326358e-06 2.987720724814845e-07 1.3470173028717525e-36 -1.5530052155583578e-18 9.93923337957349e-17 -31.17900581825046 14.301151845658225 85.23307864263225 -28.86902086472068 -7.621510751051581e-07 2.8039580390552186e-06 -6.361109362927033e-15 -3.1805546814635164e-15 -1.7655625192200634e-31 1.3470173028717525e-36 -1.5530052155583578e-18 9.93923337957349e-17 -6.422122035648959 2.289098162160007 1.5888844134562863 1.3470173028717525e-36 -1.5530052155583578e-18 9.93923337957349e-17 43.11707558920086 14.890002499125796 -84.4767655109805 21.020865112828936 -4.439669399230344e-06 4.365332864879415e-06 0.0 0.0 -3.1805546814635164e-15 -1.987846675914698e-16 -6.361109362927035e-15 3.975693351829397e-16 -6.314229268670761 3.7071865894834652 -1.6490066470707947 0.32803773743829506 6.271087576764667 0.9749065920690695 2.694034605743505e-36 -1.5530052155583576e-18 1.9878466759146977e-16
0.05213681608438492 0.10317933559417725 -0.00023047940339893103 152.48377300017737 80.5290412916749 -153.81779329443705 3.975693351829396e-16 -6.3611093629270335e-15 1.987846675914698e-16 6.199644023281383 7.297421419223522 -0.7176264194425506 -0.2794052750883555 2.9624389336925967 2.579150417333318 1.5902773407317584e-15 6.3611093629270335e-15 -8.827812596100317e-32 3.975693351829396e-16 -6.3611093629270335e-15 1.987846675914698e-16 -0.014805361874748324 6.922701612716818 -2.0038913871721147 -3.5515120717494715 3.6183969631343983e-06 4.021561583003351e-07 3.975693351829396e-16 6.3673213837892666e-15 -2.209108376709674e-32 -31.740279873341763 14.230136187993677 85.28099342866996 -28.80356400431814 -7.385055488023026e-07 -1.2107889817066134e-06 9.54166404439055e-15 0.0 0.0 3.975693351829396e-16 6.3673213837892666e-15 -2.209108376709674e-32 -6.806278684412614 2.3368365595771685 2.140656130618856 3.975693351829396e-16 6.3673213837892666e-15 -2.209108376709674e-32 43.1150011218989 14.604885726193107 -84.09379039840314 20.28426879559288 -6.603568937254907e-06 -2.0715999960419173e-06 3.180554681463516e-15 -3.1805546814635168e-15 -6.361109362927033e-15 3.975693351829396e-16 -6.3611093629270335e-15 1.987846675914698e-16 -6.371635027577245 3.66885674294896 -0.847242922574059 0.3422032391194926 5.65405861396925 -0.38005509521163483 -1.987846675914698e-16 -1.5530052155583578e-18 -2.694034605743505e-36
